<svg width="512" height="512" viewBox="0 0 512 512" fill="none" xmlns="http://www.w3.org/2000/svg">
<g id="ball_512x512" clip-path="url(#clip0_47_2)">
<path id="background" d="M512 256C512 397.385 397.385 512 256 512C114.615 512 0 397.385 0 256C0 114.615 114.615 0 256 0C397.385 0 512 114.615 512 256Z" fill="#080808"/>
<path id="white" d="M496 256C496 287.517 489.792 318.726 477.731 347.844C465.67 376.962 447.992 403.42 425.706 425.706C403.42 447.992 376.962 465.67 347.844 477.731C318.726 489.792 287.517 496 256 496C224.483 496 193.274 489.792 164.156 477.731C135.038 465.67 108.58 447.992 86.2944 425.706C64.0083 403.42 46.33 376.962 34.2689 347.844C22.2078 318.726 16 287.517 16 256L164.8 256C164.8 267.977 167.159 279.836 171.742 290.901C176.325 301.966 183.043 312.019 191.512 320.488C199.981 328.957 210.034 335.675 221.099 340.258C232.164 344.841 244.023 347.2 256 347.2C267.977 347.2 279.836 344.841 290.901 340.258C301.966 335.675 312.019 328.957 320.488 320.488C328.957 312.019 335.675 301.966 340.258 290.901C344.841 279.836 347.2 267.977 347.2 256H496Z" fill="white"/>
<path id="red" d="M496 256C496 192.348 470.714 131.303 425.706 86.2944C380.697 41.2857 319.652 16 256 16C192.348 16 131.303 41.2856 86.2944 86.2944C41.2857 131.303 16 192.348 16 256L164.8 256C164.8 231.812 174.409 208.615 191.512 191.512C208.615 174.409 231.812 164.8 256 164.8C280.188 164.8 303.385 174.409 320.488 191.512C337.591 208.615 347.2 231.812 347.2 256H496Z" fill="#F14434"/>
<line id="line_center" x1="16" y1="256" x2="496" y2="256" stroke="#080808" stroke-width="20"/>
<g id="center_white" filter="url(#filter0_i_47_2)">
<path d="M331 256C331 297.421 297.421 331 256 331C214.579 331 181 297.421 181 256C181 214.579 214.579 181 256 181C297.421 181 331 214.579 331 256Z" fill="white"/>
</g>
<path id="center_black" d="M232.165 232.873L254.793 255.5M277.42 278.127L254.793 255.5M232.165 278.127L254.793 255.5M277.42 232.873L254.793 255.5M296.159 214.841C318.614 237.297 318.614 273.703 296.159 296.159C273.704 318.614 237.297 318.614 214.841 296.159C192.386 273.703 192.386 237.297 214.841 214.841C237.297 192.386 273.704 192.386 296.159 214.841Z" stroke="black" stroke-width="5"/>
</g>
<defs>
<filter id="filter0_i_47_2" x="181" y="181" width="150" height="154" filterUnits="userSpaceOnUse" color-interpolation-filters="sRGB">
<feFlood flood-opacity="0" result="BackgroundImageFix"/>
<feBlend mode="normal" in="SourceGraphic" in2="BackgroundImageFix" result="shape"/>
<feColorMatrix in="SourceAlpha" type="matrix" values="0 0 0 0 0 0 0 0 0 0 0 0 0 0 0 0 0 0 127 0" result="hardAlpha"/>
<feOffset dy="4"/>
<feGaussianBlur stdDeviation="2"/>
<feComposite in2="hardAlpha" operator="arithmetic" k2="-1" k3="1"/>
<feColorMatrix type="matrix" values="0 0 0 0 0 0 0 0 0 0 0 0 0 0 0 0 0 0 0.25 0"/>
<feBlend mode="normal" in2="shape" result="effect1_innerShadow_47_2"/>
</filter>
<clipPath id="clip0_47_2">
<rect width="512" height="512" fill="white"/>
</clipPath>
</defs>
</svg>
