<svg viewBox="0 0 500 500" fill="none" xmlns="http://www.w3.org/2000/svg">
<g id="poke_500x500v0">
<g id="black" filter="url(#filter0_d_12_49)">
<path d="M442 249.5C442 355.815 355.815 442 249.5 442C143.185 442 57 355.815 57 249.5C57 143.185 143.185 57 249.5 57C355.815 57 442 143.185 442 249.5Z" fill="#080808"/>
</g>
<g id="white" filter="url(#filter1_i_12_49)">
<path d="M425 250C425 272.981 420.473 295.738 411.679 316.97C402.884 338.202 389.994 357.493 373.744 373.744C357.493 389.994 338.202 402.884 316.97 411.679C295.738 420.473 272.981 425 250 425C227.019 425 204.262 420.473 183.03 411.679C161.798 402.884 142.507 389.994 126.256 373.744C110.006 357.493 97.1156 338.202 88.3211 316.97C79.5265 295.738 75 272.981 75 250L183.5 250C183.5 258.733 185.22 267.38 188.562 275.448C191.904 283.517 196.802 290.848 202.977 297.023C209.152 303.198 216.483 308.096 224.552 311.438C232.62 314.78 241.267 316.5 250 316.5C258.733 316.5 267.38 314.78 275.448 311.438C283.517 308.096 290.848 303.198 297.023 297.023C303.198 290.848 308.096 283.517 311.438 275.448C314.78 267.38 316.5 258.733 316.5 250H425Z" fill="white"/>
</g>
<g id="red" filter="url(#filter2_i_12_49)">
<path d="M425 250C425 203.587 406.563 159.075 373.744 126.256C340.925 93.4375 296.413 75 250 75C203.587 75 159.075 93.4374 126.256 126.256C93.4375 159.075 75 203.587 75 250L183.5 250C183.5 232.363 190.506 215.449 202.977 202.977C215.449 190.506 232.363 183.5 250 183.5C267.637 183.5 284.551 190.506 297.023 202.977C309.494 215.449 316.5 232.363 316.5 250H425Z" fill="#F14434"/>
</g>
<g id="center_white_1" filter="url(#filter3_i_12_49)">
<path d="M300 250C300 277.614 277.614 300 250 300C222.386 300 200 277.614 200 250C200 222.386 222.386 200 250 200C277.614 200 300 222.386 300 250Z" fill="white"/>
</g>
<line id="line_left" x1="58" y1="254.5" x2="186" y2="254.5" stroke="#080808" stroke-width="19"/>
<line id="line_right" x1="311" y1="254.5" x2="439" y2="254.5" stroke="#080808" stroke-width="19"/>
<g id="center_black" filter="url(#filter4_d_12_49)">
<path d="M290 250C290 272.091 272.091 290 250 290C227.909 290 210 272.091 210 250C210 227.909 227.909 210 250 210C272.091 210 290 227.909 290 250Z" fill="white"/>
<path d="M288 250C288 270.987 270.987 288 250 288C229.013 288 212 270.987 212 250C212 229.013 229.013 212 250 212C270.987 212 288 229.013 288 250Z" stroke="black" stroke-width="4"/>
</g>
</g>
<defs>
<filter id="filter0_d_12_49" x="53" y="57" width="393" height="393" filterUnits="userSpaceOnUse" color-interpolation-filters="sRGB">
<feFlood flood-opacity="0" result="BackgroundImageFix"/>
<feColorMatrix in="SourceAlpha" type="matrix" values="0 0 0 0 0 0 0 0 0 0 0 0 0 0 0 0 0 0 127 0" result="hardAlpha"/>
<feOffset dy="4"/>
<feGaussianBlur stdDeviation="2"/>
<feComposite in2="hardAlpha" operator="out"/>
<feColorMatrix type="matrix" values="0 0 0 0 0 0 0 0 0 0 0 0 0 0 0 0 0 0 0.25 0"/>
<feBlend mode="normal" in2="BackgroundImageFix" result="effect1_dropShadow_12_49"/>
<feBlend mode="normal" in="SourceGraphic" in2="effect1_dropShadow_12_49" result="shape"/>
</filter>
<filter id="filter1_i_12_49" x="75" y="250" width="350" height="179" filterUnits="userSpaceOnUse" color-interpolation-filters="sRGB">
<feFlood flood-opacity="0" result="BackgroundImageFix"/>
<feBlend mode="normal" in="SourceGraphic" in2="BackgroundImageFix" result="shape"/>
<feColorMatrix in="SourceAlpha" type="matrix" values="0 0 0 0 0 0 0 0 0 0 0 0 0 0 0 0 0 0 127 0" result="hardAlpha"/>
<feOffset dy="4"/>
<feGaussianBlur stdDeviation="2"/>
<feComposite in2="hardAlpha" operator="arithmetic" k2="-1" k3="1"/>
<feColorMatrix type="matrix" values="0 0 0 0 0 0 0 0 0 0 0 0 0 0 0 0 0 0 0.25 0"/>
<feBlend mode="normal" in2="shape" result="effect1_innerShadow_12_49"/>
</filter>
<filter id="filter2_i_12_49" x="75" y="75" width="350" height="179" filterUnits="userSpaceOnUse" color-interpolation-filters="sRGB">
<feFlood flood-opacity="0" result="BackgroundImageFix"/>
<feBlend mode="normal" in="SourceGraphic" in2="BackgroundImageFix" result="shape"/>
<feColorMatrix in="SourceAlpha" type="matrix" values="0 0 0 0 0 0 0 0 0 0 0 0 0 0 0 0 0 0 127 0" result="hardAlpha"/>
<feOffset dy="4"/>
<feGaussianBlur stdDeviation="2"/>
<feComposite in2="hardAlpha" operator="arithmetic" k2="-1" k3="1"/>
<feColorMatrix type="matrix" values="0 0 0 0 0 0 0 0 0 0 0 0 0 0 0 0 0 0 0.25 0"/>
<feBlend mode="normal" in2="shape" result="effect1_innerShadow_12_49"/>
</filter>
<filter id="filter3_i_12_49" x="200" y="200" width="100" height="104" filterUnits="userSpaceOnUse" color-interpolation-filters="sRGB">
<feFlood flood-opacity="0" result="BackgroundImageFix"/>
<feBlend mode="normal" in="SourceGraphic" in2="BackgroundImageFix" result="shape"/>
<feColorMatrix in="SourceAlpha" type="matrix" values="0 0 0 0 0 0 0 0 0 0 0 0 0 0 0 0 0 0 127 0" result="hardAlpha"/>
<feOffset dy="4"/>
<feGaussianBlur stdDeviation="2"/>
<feComposite in2="hardAlpha" operator="arithmetic" k2="-1" k3="1"/>
<feColorMatrix type="matrix" values="0 0 0 0 0 0 0 0 0 0 0 0 0 0 0 0 0 0 0.25 0"/>
<feBlend mode="normal" in2="shape" result="effect1_innerShadow_12_49"/>
</filter>
<filter id="filter4_d_12_49" x="206" y="210" width="88" height="88" filterUnits="userSpaceOnUse" color-interpolation-filters="sRGB">
<feFlood flood-opacity="0" result="BackgroundImageFix"/>
<feColorMatrix in="SourceAlpha" type="matrix" values="0 0 0 0 0 0 0 0 0 0 0 0 0 0 0 0 0 0 127 0" result="hardAlpha"/>
<feOffset dy="4"/>
<feGaussianBlur stdDeviation="2"/>
<feComposite in2="hardAlpha" operator="out"/>
<feColorMatrix type="matrix" values="0 0 0 0 0 0 0 0 0 0 0 0 0 0 0 0 0 0 0.25 0"/>
<feBlend mode="normal" in2="BackgroundImageFix" result="effect1_dropShadow_12_49"/>
<feBlend mode="normal" in="SourceGraphic" in2="effect1_dropShadow_12_49" result="shape"/>
</filter>
</defs>
</svg>
