<svg viewBox="0 0 500 500" fill="none" xmlns="http://www.w3.org/2000/svg">
<g id="poke_500x500v0">
<g id="black" filter="url(#filter0_d_12_49)">
<path d="M442 249.5C442 355.815 355.815 442 249.5 442C143.185 442 57 355.815 57 249.5C57 143.185 143.185 57 249.5 57C355.815 57 442 143.185 442 249.5Z" fill="#080808"/>
</g>
<g id="white" filter="url(#filter1_i_12_49)">
<path d="M425 250C425 272.981 420.473 295.738 411.679 316.97C402.884 338.202 389.994 357.493 373.744 373.744C357.493 389.994 338.202 402.884 316.97 411.679C295.738 420.473 272.981 425 250 425C227.019 425 204.262 420.473 183.03 411.679C161.798 402.884 142.507 389.994 126.256 373.744C110.006 357.493 97.1156 338.202 88.3211 316.97C79.5265 295.738 75 272.981 75 250L183.5 250C183.5 258.733 185.22 267.38 188.562 275.448C191.904 283.517 196.802 290.848 202.977 297.023C209.152 303.198 216.483 308.096 224.552 311.438C232.62 314.78 241.267 316.5 250 316.5C258.733 316.5 267.38 314.78 275.448 311.438C283.517 308.096 290.848 303.198 297.023 297.023C303.198 290.848 308.096 283.517 311.438 275.448C314.78 267.38 316.5 258.733 316.5 250H425Z" fill="white"/>
</g>
<g id="red" filter="url(#filter2_i_12_49)">
<path d="M425 250C425 203.587 406.563 159.075 373.744 126.256C340.925 93.4375 296.413 75 250 75C203.587 75 159.075 93.4374 126.256 126.256C93.4375 159.075 75 203.587 75 250L183.5 250C183.5 232.363 190.506 215.449 202.977 202.977C215.449 190.506 232.363 183.5 250 183.5C267.637 183.5 284.551 190.506 297.023 202.977C309.494 215.449 316.5 232.363 316.5 250H425Z" fill="#F14434"/>
</g>
<g id="center_white_1" filter="url(#filter3_i_12_49)">
<path d="M300 250C300 277.614 277.614 300 250 300C222.386 300 200 277.614 200 250C200 222.386 222.386 200 250 200C277.614 200 300 222.386 300 250Z" fill="white"/>
</g>
<line id="line_left" x1="58" y1="254.5" x2="186" y2="254.5" stroke="#080808" stroke-width="19"/>
<line id="line_right" x1="311" y1="254.5" x2="439" y2="254.5" stroke="#080808" stroke-width="19"/>
<g id="center_black" filter="url(#filter4_d_12_49)">
<path d="M290 250C290 272.091 272.091 290 250 290C227.909 290 210 272.091 210 250C210 227.909 227.909 210 250 210C272.091 210 290 227.909 290 250Z" fill="white"/>
<path d="M288 250C288 270.987 270.987 288 250 288C229.013 288 212 270.987 212 250C212 229.013 229.013 212 250 212C270.987 212 288 229.013 288 250Z" stroke="black" stroke-width="4"/>
</g>
<g id="SVG">
<path d="M238.991 248.091C238.906 247.371 238.56 246.812 237.954 246.415C237.348 246.017 236.605 245.818 235.724 245.818C235.08 245.818 234.517 245.922 234.034 246.131C233.556 246.339 233.182 246.625 232.912 246.99C232.647 247.355 232.514 247.769 232.514 248.233C232.514 248.621 232.606 248.955 232.791 249.234C232.98 249.509 233.222 249.739 233.515 249.923C233.809 250.103 234.117 250.252 234.439 250.371C234.761 250.484 235.057 250.577 235.327 250.648L236.804 251.045C237.183 251.145 237.604 251.282 238.068 251.457C238.537 251.633 238.984 251.872 239.41 252.175C239.841 252.473 240.196 252.857 240.476 253.325C240.755 253.794 240.895 254.369 240.895 255.051C240.895 255.837 240.689 256.547 240.277 257.182C239.87 257.816 239.273 258.321 238.487 258.695C237.706 259.069 236.756 259.256 235.639 259.256C234.597 259.256 233.695 259.088 232.933 258.751C232.175 258.415 231.579 257.946 231.143 257.345C230.712 256.744 230.469 256.045 230.412 255.25H232.23C232.277 255.799 232.462 256.254 232.784 256.614C233.111 256.969 233.523 257.234 234.02 257.409C234.522 257.58 235.061 257.665 235.639 257.665C236.311 257.665 236.915 257.556 237.45 257.338C237.985 257.116 238.409 256.808 238.721 256.415C239.034 256.017 239.19 255.553 239.19 255.023C239.19 254.54 239.055 254.147 238.785 253.844C238.515 253.541 238.16 253.295 237.72 253.105C237.28 252.916 236.804 252.75 236.292 252.608L234.503 252.097C233.366 251.77 232.467 251.304 231.804 250.697C231.141 250.091 230.809 249.298 230.809 248.318C230.809 247.504 231.03 246.794 231.47 246.188C231.915 245.577 232.512 245.103 233.26 244.767C234.013 244.426 234.853 244.256 235.781 244.256C236.719 244.256 237.552 244.424 238.281 244.76C239.01 245.091 239.588 245.546 240.014 246.124C240.445 246.701 240.672 247.357 240.696 248.091H238.991ZM244.387 244.455L248.705 256.699H248.876L253.194 244.455H255.041L249.7 259H247.882L242.541 244.455H244.387ZM266.566 249C266.41 248.522 266.204 248.093 265.948 247.714C265.697 247.331 265.396 247.004 265.046 246.734C264.7 246.464 264.307 246.259 263.867 246.116C263.427 245.974 262.944 245.903 262.418 245.903C261.556 245.903 260.773 246.126 260.067 246.571C259.362 247.016 258.801 247.672 258.384 248.538C257.967 249.405 257.759 250.468 257.759 251.727C257.759 252.987 257.97 254.05 258.391 254.916C258.813 255.783 259.383 256.438 260.103 256.884C260.823 257.329 261.632 257.551 262.532 257.551C263.365 257.551 264.099 257.374 264.733 257.018C265.373 256.659 265.87 256.152 266.225 255.499C266.585 254.84 266.765 254.066 266.765 253.176L267.305 253.29H262.93V251.727H268.469V253.29C268.469 254.488 268.214 255.529 267.702 256.415C267.196 257.3 266.495 257.987 265.6 258.474C264.71 258.957 263.687 259.199 262.532 259.199C261.244 259.199 260.112 258.896 259.137 258.29C258.166 257.684 257.409 256.822 256.864 255.705C256.324 254.587 256.055 253.261 256.055 251.727C256.055 250.577 256.208 249.542 256.516 248.624C256.829 247.7 257.269 246.914 257.837 246.266C258.405 245.617 259.078 245.12 259.854 244.774C260.631 244.429 261.485 244.256 262.418 244.256C263.185 244.256 263.9 244.372 264.563 244.604C265.231 244.831 265.825 245.155 266.346 245.577C266.871 245.993 267.309 246.493 267.66 247.075C268.01 247.653 268.251 248.295 268.384 249H266.566Z" fill="black"/>
<path d="M238.991 248.091L238.495 248.15L238.547 248.591H238.991V248.091ZM237.954 246.415L237.68 246.833L237.68 246.833L237.954 246.415ZM234.034 246.131L233.836 245.672L233.834 245.672L234.034 246.131ZM232.912 246.99L232.51 246.693L232.507 246.696L232.912 246.99ZM232.791 249.234L232.374 249.51L232.379 249.518L232.791 249.234ZM233.515 249.923L233.249 250.347L233.254 250.35L233.515 249.923ZM234.439 250.371L234.266 250.84L234.272 250.842L234.439 250.371ZM235.327 250.648L235.457 250.165L235.454 250.164L235.327 250.648ZM236.804 251.045L236.674 251.528L236.677 251.529L236.804 251.045ZM238.068 251.457L237.891 251.925L237.893 251.926L238.068 251.457ZM239.41 252.175L239.121 252.582L239.126 252.586L239.41 252.175ZM240.476 253.325L240.905 253.069L240.905 253.069L240.476 253.325ZM240.277 257.182L239.857 256.91L239.856 256.912L240.277 257.182ZM238.487 258.695L238.272 258.243L238.271 258.244L238.487 258.695ZM232.933 258.751L232.73 259.208L232.731 259.209L232.933 258.751ZM231.143 257.345L230.737 257.636L230.738 257.638L231.143 257.345ZM230.412 255.25V254.75H229.875L229.913 255.286L230.412 255.25ZM232.23 255.25L232.728 255.207L232.689 254.75H232.23V255.25ZM232.784 256.614L232.411 256.947L232.416 256.952L232.784 256.614ZM234.02 257.409L233.854 257.881L233.859 257.883L234.02 257.409ZM237.45 257.338L237.639 257.801L237.642 257.8L237.45 257.338ZM238.721 256.415L239.113 256.726L239.115 256.724L238.721 256.415ZM238.785 253.844L239.159 253.511L239.159 253.511L238.785 253.844ZM237.72 253.105L237.522 253.564L237.522 253.564L237.72 253.105ZM236.292 252.608L236.155 253.089L236.159 253.09L236.292 252.608ZM234.503 252.097L234.365 252.577L234.365 252.577L234.503 252.097ZM231.804 250.697L231.466 251.066L231.466 251.066L231.804 250.697ZM231.47 246.188L231.066 245.893L231.065 245.894L231.47 246.188ZM233.26 244.767L233.465 245.223L233.466 245.223L233.26 244.767ZM238.281 244.76L238.072 245.214L238.074 245.215L238.281 244.76ZM240.014 246.124L239.612 246.42L239.613 246.423L240.014 246.124ZM240.696 248.091V248.591H241.212L241.196 248.075L240.696 248.091ZM239.488 248.032C239.385 247.166 238.958 246.475 238.229 245.997L237.68 246.833C238.163 247.15 238.427 247.577 238.495 248.15L239.488 248.032ZM238.229 245.997C237.525 245.535 236.681 245.318 235.724 245.318V246.318C236.529 246.318 237.172 246.499 237.68 246.833L238.229 245.997ZM235.724 245.318C235.027 245.318 234.394 245.431 233.836 245.672L234.232 246.59C234.64 246.414 235.134 246.318 235.724 246.318V245.318ZM233.834 245.672C233.288 245.91 232.839 246.248 232.51 246.693L233.314 247.288C233.524 247.003 233.824 246.768 234.234 246.589L233.834 245.672ZM232.507 246.696C232.178 247.149 232.014 247.667 232.014 248.233H233.014C233.014 247.871 233.115 247.561 233.316 247.284L232.507 246.696ZM232.014 248.233C232.014 248.703 232.127 249.137 232.374 249.51L233.208 248.959C233.086 248.774 233.014 248.539 233.014 248.233H232.014ZM232.379 249.518C232.609 249.851 232.901 250.127 233.249 250.347L233.782 249.5C233.543 249.35 233.352 249.167 233.203 248.951L232.379 249.518ZM233.254 250.35C233.576 250.547 233.913 250.71 234.266 250.84L234.611 249.901C234.32 249.794 234.042 249.66 233.777 249.497L233.254 250.35ZM234.272 250.842C234.604 250.959 234.914 251.056 235.199 251.131L235.454 250.164C235.2 250.097 234.917 250.009 234.605 249.899L234.272 250.842ZM235.197 251.131L236.674 251.528L236.934 250.563L235.457 250.165L235.197 251.131ZM236.677 251.529C237.035 251.623 237.44 251.755 237.891 251.925L238.245 250.99C237.768 250.81 237.33 250.667 236.931 250.562L236.677 251.529ZM237.893 251.926C238.319 252.085 238.728 252.303 239.121 252.582L239.7 251.767C239.24 251.44 238.754 251.18 238.243 250.989L237.893 251.926ZM239.126 252.586C239.495 252.842 239.802 253.171 240.046 253.581L240.905 253.069C240.591 252.542 240.187 252.104 239.695 251.764L239.126 252.586ZM240.046 253.581C240.269 253.955 240.395 254.437 240.395 255.051H241.395C241.395 254.301 241.241 253.633 240.905 253.069L240.046 253.581ZM240.395 255.051C240.395 255.744 240.215 256.359 239.857 256.91L240.696 257.454C241.163 256.735 241.395 255.93 241.395 255.051H240.395ZM239.856 256.912C239.507 257.456 238.987 257.903 238.272 258.243L238.702 259.146C239.559 258.738 240.233 258.176 240.698 257.452L239.856 256.912ZM238.271 258.244C237.574 258.577 236.703 258.756 235.639 258.756V259.756C236.81 259.756 237.838 259.56 238.703 259.146L238.271 258.244ZM235.639 258.756C234.65 258.756 233.82 258.596 233.135 258.294L232.731 259.209C233.571 259.579 234.545 259.756 235.639 259.756V258.756ZM233.136 258.294C232.449 257.99 231.926 257.574 231.548 257.052L230.738 257.638C231.232 258.319 231.902 258.841 232.73 259.208L233.136 258.294ZM231.55 257.054C231.177 256.534 230.961 255.925 230.91 255.214L229.913 255.286C229.976 256.166 230.248 256.954 230.737 257.636L231.55 257.054ZM230.412 255.75H232.23V254.75H230.412V255.75ZM231.732 255.293C231.787 255.934 232.007 256.495 232.411 256.947L233.157 256.28C232.917 256.012 232.768 255.664 232.728 255.207L231.732 255.293ZM232.416 256.952C232.803 257.373 233.287 257.681 233.854 257.881L234.186 256.938C233.759 256.787 233.418 256.565 233.152 256.275L232.416 256.952ZM233.859 257.883C234.417 258.072 235.012 258.165 235.639 258.165V257.165C235.111 257.165 234.626 257.087 234.181 256.936L233.859 257.883ZM235.639 258.165C236.366 258.165 237.035 258.047 237.639 257.801L237.262 256.875C236.795 257.065 236.257 257.165 235.639 257.165V258.165ZM237.642 257.8C238.243 257.55 238.74 257.195 239.113 256.726L238.33 256.104C238.078 256.421 237.727 256.681 237.258 256.876L237.642 257.8ZM239.115 256.724C239.5 256.233 239.69 255.659 239.69 255.023H238.69C238.69 255.447 238.568 255.801 238.328 256.106L239.115 256.724ZM239.69 255.023C239.69 254.442 239.525 253.923 239.159 253.511L238.412 254.176C238.585 254.371 238.69 254.638 238.69 255.023H239.69ZM239.159 253.511C238.832 253.145 238.413 252.859 237.918 252.646L237.522 253.564C237.908 253.73 238.199 253.937 238.412 254.176L239.159 253.511ZM237.918 252.646C237.454 252.447 236.957 252.274 236.426 252.126L236.159 253.09C236.651 253.226 237.105 253.385 237.522 253.564L237.918 252.646ZM236.43 252.127L234.64 251.616L234.365 252.577L236.155 253.089L236.43 252.127ZM234.641 251.616C233.556 251.304 232.732 250.869 232.141 250.328L231.466 251.066C232.201 251.738 233.177 252.236 234.365 252.577L234.641 251.616ZM232.141 250.328C231.592 249.826 231.309 249.172 231.309 248.318H230.309C230.309 249.424 230.69 250.356 231.466 251.066L232.141 250.328ZM231.309 248.318C231.309 247.6 231.502 246.995 231.874 246.481L231.065 245.894C230.558 246.593 230.309 247.408 230.309 248.318H231.309ZM231.874 246.482C232.264 245.947 232.789 245.527 233.465 245.223L233.055 244.311C232.234 244.68 231.566 245.206 231.066 245.893L231.874 246.482ZM233.466 245.223C234.147 244.914 234.915 244.756 235.781 244.756V243.756C234.791 243.756 233.879 243.938 233.054 244.312L233.466 245.223ZM235.781 244.756C236.658 244.756 237.418 244.913 238.072 245.214L238.49 244.306C237.685 243.935 236.779 243.756 235.781 243.756V244.756ZM238.074 245.215C238.735 245.515 239.242 245.919 239.612 246.42L240.416 245.827C239.934 245.173 239.286 244.667 238.488 244.305L238.074 245.215ZM239.613 246.423C239.982 246.917 240.176 247.473 240.196 248.107L241.196 248.075C241.169 247.241 240.908 246.486 240.415 245.825L239.613 246.423ZM240.696 247.591H238.991V248.591H240.696V247.591ZM244.387 244.455L244.859 244.288L244.741 243.955H244.387V244.455ZM248.705 256.699L248.234 256.865L248.352 257.199H248.705V256.699ZM248.876 256.699V257.199H249.23L249.347 256.865L248.876 256.699ZM253.194 244.455V243.955H252.84L252.723 244.288L253.194 244.455ZM255.041 244.455L255.51 244.627L255.757 243.955H255.041V244.455ZM249.7 259V259.5H250.049L250.169 259.172L249.7 259ZM247.882 259L247.412 259.172L247.533 259.5H247.882V259ZM242.541 244.455V243.955H241.824L242.071 244.627L242.541 244.455ZM243.916 244.621L248.234 256.865L249.177 256.533L244.859 244.288L243.916 244.621ZM248.705 257.199H248.876V256.199H248.705V257.199ZM249.347 256.865L253.666 244.621L252.723 244.288L248.404 256.533L249.347 256.865ZM253.194 244.955H255.041V243.955H253.194V244.955ZM254.571 244.282L249.23 258.828L250.169 259.172L255.51 244.627L254.571 244.282ZM249.7 258.5H247.882V259.5H249.7V258.5ZM248.351 258.828L243.01 244.282L242.071 244.627L247.412 259.172L248.351 258.828ZM242.541 244.955H244.387V243.955H242.541V244.955ZM266.566 249L266.091 249.155L266.203 249.5H266.566V249ZM265.948 247.714L265.53 247.988L265.534 247.994L265.948 247.714ZM265.046 246.734L264.738 247.128L264.741 247.13L265.046 246.734ZM263.867 246.116L264.021 245.641L264.021 245.641L263.867 246.116ZM258.384 248.538L258.835 248.755L258.835 248.755L258.384 248.538ZM258.391 254.916L257.942 255.135L257.942 255.135L258.391 254.916ZM260.103 256.884L259.84 257.309L260.103 256.884ZM264.733 257.018L264.978 257.455L264.979 257.454L264.733 257.018ZM266.225 255.499L265.786 255.259L265.786 255.26L266.225 255.499ZM266.765 253.176L266.868 252.687L266.265 252.56V253.176H266.765ZM267.305 253.29V253.79L267.408 252.8L267.305 253.29ZM262.93 253.29H262.43V253.79H262.93V253.29ZM262.93 251.727V251.227H262.43V251.727H262.93ZM268.469 251.727H268.969V251.227H268.469V251.727ZM267.702 256.415L267.269 256.165L267.268 256.166L267.702 256.415ZM265.6 258.474L265.838 258.914L265.839 258.913L265.6 258.474ZM259.137 258.29L258.872 258.714L258.873 258.714L259.137 258.29ZM256.864 255.705L256.414 255.922L256.415 255.924L256.864 255.705ZM256.516 248.624L256.043 248.463L256.042 248.465L256.516 248.624ZM257.837 246.266L258.213 246.595L258.213 246.595L257.837 246.266ZM259.854 244.774L259.651 244.317L259.854 244.774ZM264.563 244.604L264.398 245.076L264.402 245.077L264.563 244.604ZM266.346 245.577L266.031 245.965L266.035 245.969L266.346 245.577ZM267.66 247.075L267.231 247.333L267.232 247.335L267.66 247.075ZM268.384 249V249.5H268.987L268.875 248.908L268.384 249ZM267.041 248.845C266.872 248.327 266.647 247.856 266.362 247.435L265.534 247.994C265.761 248.331 265.947 248.717 266.091 249.155L267.041 248.845ZM266.366 247.441C266.086 247.012 265.747 246.644 265.351 246.338L264.741 247.13C265.045 247.365 265.308 247.65 265.53 247.988L266.366 247.441ZM265.354 246.34C264.959 246.032 264.514 245.8 264.021 245.641L263.714 246.592C264.101 246.717 264.441 246.897 264.738 247.128L265.354 246.34ZM264.021 245.641C263.524 245.481 262.989 245.403 262.418 245.403V246.403C262.899 246.403 263.329 246.468 263.714 246.592L264.021 245.641ZM262.418 245.403C261.465 245.403 260.589 245.651 259.801 246.148L260.334 246.994C260.957 246.601 261.648 246.403 262.418 246.403V245.403ZM259.801 246.148C259.004 246.651 258.384 247.384 257.933 248.322L258.835 248.755C259.217 247.96 259.72 247.382 260.334 246.994L259.801 246.148ZM257.933 248.322C257.476 249.273 257.259 250.415 257.259 251.727H258.259C258.259 250.521 258.459 249.536 258.835 248.755L257.933 248.322ZM257.259 251.727C257.259 253.04 257.478 254.183 257.942 255.135L258.841 254.698C258.461 253.917 258.259 252.933 258.259 251.727H257.259ZM257.942 255.135C258.398 256.074 259.029 256.807 259.84 257.309L260.366 256.458C259.737 256.07 259.227 255.491 258.841 254.698L257.942 255.135ZM259.84 257.309C260.644 257.806 261.545 258.051 262.532 258.051V257.051C261.719 257.051 261.001 256.851 260.366 256.458L259.84 257.309ZM262.532 258.051C263.438 258.051 264.258 257.857 264.978 257.455L264.489 256.582C263.94 256.89 263.292 257.051 262.532 257.051V258.051ZM264.979 257.454C265.701 257.048 266.265 256.472 266.664 255.737L265.786 255.26C265.475 255.832 265.044 256.27 264.488 256.583L264.979 257.454ZM266.664 255.738C267.071 254.994 267.265 254.134 267.265 253.176H266.265C266.265 253.998 266.099 254.687 265.786 255.259L266.664 255.738ZM266.662 253.665L267.202 253.779L267.408 252.8L266.868 252.687L266.662 253.665ZM267.305 252.79H262.93V253.79H267.305V252.79ZM263.43 253.29V251.727H262.43V253.29H263.43ZM262.93 252.227H268.469V251.227H262.93V252.227ZM267.969 251.727V253.29H268.969V251.727H267.969ZM267.969 253.29C267.969 254.415 267.73 255.367 267.269 256.165L268.135 256.665C268.698 255.691 268.969 254.56 268.969 253.29H267.969ZM267.268 256.166C266.808 256.972 266.174 257.592 265.361 258.035L265.839 258.913C266.816 258.381 267.584 257.629 268.136 256.663L267.268 256.166ZM265.362 258.035C264.554 258.473 263.616 258.699 262.532 258.699V259.699C263.759 259.699 264.865 259.442 265.838 258.914L265.362 258.035ZM262.532 258.699C261.326 258.699 260.288 258.416 259.401 257.865L258.873 258.714C259.937 259.376 261.162 259.699 262.532 259.699V258.699ZM259.402 257.866C258.517 257.314 257.821 256.526 257.314 255.486L256.415 255.924C256.997 257.118 257.815 258.054 258.872 258.714L259.402 257.866ZM257.314 255.487C256.814 254.452 256.555 253.203 256.555 251.727H255.555C255.555 253.319 255.835 254.723 256.414 255.922L257.314 255.487ZM256.555 251.727C256.555 250.621 256.703 249.641 256.99 248.782L256.042 248.465C255.714 249.443 255.555 250.533 255.555 251.727H256.555ZM256.99 248.784C257.284 247.915 257.694 247.188 258.213 246.595L257.461 245.936C256.844 246.64 256.373 247.486 256.043 248.463L256.99 248.784ZM258.213 246.595C258.734 246 259.348 245.547 260.058 245.231L259.651 244.317C258.807 244.693 258.076 245.234 257.461 245.936L258.213 246.595ZM260.058 245.231C260.764 244.916 261.549 244.756 262.418 244.756V243.756C261.422 243.756 260.497 243.941 259.651 244.317L260.058 245.231ZM262.418 244.756C263.134 244.756 263.793 244.864 264.398 245.076L264.728 244.132C264.008 243.88 263.236 243.756 262.418 243.756V244.756ZM264.402 245.077C265.017 245.286 265.558 245.583 266.031 245.965L266.66 245.188C266.091 244.728 265.445 244.376 264.724 244.13L264.402 245.077ZM266.035 245.969C266.513 246.347 266.911 246.801 267.231 247.333L268.088 246.818C267.707 246.184 267.23 245.639 266.656 245.185L266.035 245.969ZM267.232 247.335C267.549 247.858 267.77 248.442 267.893 249.092L268.875 248.908C268.732 248.147 268.471 247.448 268.087 246.816L267.232 247.335ZM268.384 248.5H266.566V249.5H268.384V248.5Z" fill="black"/>
</g>
</g>
<defs>
<filter id="filter0_d_12_49" x="53" y="57" width="393" height="393" filterUnits="userSpaceOnUse" color-interpolation-filters="sRGB">
<feFlood flood-opacity="0" result="BackgroundImageFix"/>
<feColorMatrix in="SourceAlpha" type="matrix" values="0 0 0 0 0 0 0 0 0 0 0 0 0 0 0 0 0 0 127 0" result="hardAlpha"/>
<feOffset dy="4"/>
<feGaussianBlur stdDeviation="2"/>
<feComposite in2="hardAlpha" operator="out"/>
<feColorMatrix type="matrix" values="0 0 0 0 0 0 0 0 0 0 0 0 0 0 0 0 0 0 0.25 0"/>
<feBlend mode="normal" in2="BackgroundImageFix" result="effect1_dropShadow_12_49"/>
<feBlend mode="normal" in="SourceGraphic" in2="effect1_dropShadow_12_49" result="shape"/>
</filter>
<filter id="filter1_i_12_49" x="75" y="250" width="350" height="179" filterUnits="userSpaceOnUse" color-interpolation-filters="sRGB">
<feFlood flood-opacity="0" result="BackgroundImageFix"/>
<feBlend mode="normal" in="SourceGraphic" in2="BackgroundImageFix" result="shape"/>
<feColorMatrix in="SourceAlpha" type="matrix" values="0 0 0 0 0 0 0 0 0 0 0 0 0 0 0 0 0 0 127 0" result="hardAlpha"/>
<feOffset dy="4"/>
<feGaussianBlur stdDeviation="2"/>
<feComposite in2="hardAlpha" operator="arithmetic" k2="-1" k3="1"/>
<feColorMatrix type="matrix" values="0 0 0 0 0 0 0 0 0 0 0 0 0 0 0 0 0 0 0.25 0"/>
<feBlend mode="normal" in2="shape" result="effect1_innerShadow_12_49"/>
</filter>
<filter id="filter2_i_12_49" x="75" y="75" width="350" height="179" filterUnits="userSpaceOnUse" color-interpolation-filters="sRGB">
<feFlood flood-opacity="0" result="BackgroundImageFix"/>
<feBlend mode="normal" in="SourceGraphic" in2="BackgroundImageFix" result="shape"/>
<feColorMatrix in="SourceAlpha" type="matrix" values="0 0 0 0 0 0 0 0 0 0 0 0 0 0 0 0 0 0 127 0" result="hardAlpha"/>
<feOffset dy="4"/>
<feGaussianBlur stdDeviation="2"/>
<feComposite in2="hardAlpha" operator="arithmetic" k2="-1" k3="1"/>
<feColorMatrix type="matrix" values="0 0 0 0 0 0 0 0 0 0 0 0 0 0 0 0 0 0 0.25 0"/>
<feBlend mode="normal" in2="shape" result="effect1_innerShadow_12_49"/>
</filter>
<filter id="filter3_i_12_49" x="200" y="200" width="100" height="104" filterUnits="userSpaceOnUse" color-interpolation-filters="sRGB">
<feFlood flood-opacity="0" result="BackgroundImageFix"/>
<feBlend mode="normal" in="SourceGraphic" in2="BackgroundImageFix" result="shape"/>
<feColorMatrix in="SourceAlpha" type="matrix" values="0 0 0 0 0 0 0 0 0 0 0 0 0 0 0 0 0 0 127 0" result="hardAlpha"/>
<feOffset dy="4"/>
<feGaussianBlur stdDeviation="2"/>
<feComposite in2="hardAlpha" operator="arithmetic" k2="-1" k3="1"/>
<feColorMatrix type="matrix" values="0 0 0 0 0 0 0 0 0 0 0 0 0 0 0 0 0 0 0.25 0"/>
<feBlend mode="normal" in2="shape" result="effect1_innerShadow_12_49"/>
</filter>
<filter id="filter4_d_12_49" x="206" y="210" width="88" height="88" filterUnits="userSpaceOnUse" color-interpolation-filters="sRGB">
<feFlood flood-opacity="0" result="BackgroundImageFix"/>
<feColorMatrix in="SourceAlpha" type="matrix" values="0 0 0 0 0 0 0 0 0 0 0 0 0 0 0 0 0 0 127 0" result="hardAlpha"/>
<feOffset dy="4"/>
<feGaussianBlur stdDeviation="2"/>
<feComposite in2="hardAlpha" operator="out"/>
<feColorMatrix type="matrix" values="0 0 0 0 0 0 0 0 0 0 0 0 0 0 0 0 0 0 0.25 0"/>
<feBlend mode="normal" in2="BackgroundImageFix" result="effect1_dropShadow_12_49"/>
<feBlend mode="normal" in="SourceGraphic" in2="effect1_dropShadow_12_49" result="shape"/>
</filter>
</defs>
</svg>
